STARTFONT 2.1
COMMENT
COMMENT Converted from TrueType font "albas.ttf" by "ttf2bdf 2.6".
COMMENT
FONT -FreeType-Alba Super-Medium-R-Normal--22-160-100-100-P-143-ISO10646-1
SIZE 16 100 100
FONTBOUNDINGBOX 33 44 -3 -16
STARTPROPERTIES 20
FOUNDRY "FreeType"
FAMILY_NAME "Alba Super"
WEIGHT_NAME "Medium"
SLANT "R"
SETWIDTH_NAME "Normal"
ADD_STYLE_NAME ""
PIXEL_SIZE 22
POINT_SIZE 160
RESOLUTION_X 100
RESOLUTION_Y 100
SPACING "P"
AVERAGE_WIDTH 143
CHARSET_REGISTRY "ISO10646"
CHARSET_ENCODING "1"
FONT_ASCENT 22
FONT_DESCENT 11
COPYRIGHT "Alba ©2001, Font"a"licious Fonts."
_TTF_FONTFILE "albas.ttf"
_TTF_PSNAME "AlbaSuper"
_XFREE86_GLYPH_RANGES "32_126 161_165 167_172 174_177 180_184 186_187 191_214 216_252 254_255 305 321_322 338_339 352_353 376 381_382 402 710_711 713 728_733 916 937 956 960 8208 8211_8212 8216_8218 8220_8222 8224_8226 8230 8240 8249_8250 8260 8482 8486 8706 8710 8719 8721 8729_8730 8734 8747 8776 8800 8804_8805 8946 9674 61441_61442"
ENDPROPERTIES
CHARS 239
STARTCHAR 0020
ENCODING 32
SWIDTH 315 0
DWIDTH 7 0
BBX 1 1 0 0
BITMAP
00
ENDCHAR
STARTCHAR 0021
ENCODING 33
SWIDTH 225 0
DWIDTH 5 0
BBX 7 21 0 -4
BITMAP
70
88
84
84
84
84
84
84
84
84
84
8C
FC
C4
84
82
84
C6
FE
FC
78
ENDCHAR
STARTCHAR 0022
ENCODING 34
SWIDTH 450 0
DWIDTH 10 0
BBX 11 11 0 6
BITMAP
7BC0
CE60
8420
8420
8420
8420
8420
CE60
FFE0
FFE0
7BC0
ENDCHAR
STARTCHAR 0023
ENCODING 35
SWIDTH 585 0
DWIDTH 13 0
BBX 13 16 0 1
BITMAP
1DC0
2220
6230
8008
8008
8008
E238
C018
8008
8008
C008
E238
E238
7FF0
3FE0
1DC0
ENDCHAR
STARTCHAR 0024
ENCODING 36
SWIDTH 495 0
DWIDTH 11 0
BBX 12 21 0 -4
BITMAP
0E00
1100
11E0
1A10
1C10
1810
1070
10F0
10F0
10E0
1080
7080
E080
8180
8100
8F00
F100
F100
7F00
1F00
0E00
ENDCHAR
STARTCHAR 0025
ENCODING 37
SWIDTH 765 0
DWIDTH 17 0
BBX 18 25 0 -6
BITMAP
003C00
006600
3C4200
43C200
818600
9D8600
9D0C00
9D0C00
C30C00
FE1800
7E1800
3E1F00
043180
0420C0
046E40
084E40
086E80
18E0C0
10F1C0
10FFC0
11BF80
199F00
1F8000
1F0000
0F0000
ENDCHAR
STARTCHAR 0026
ENCODING 38
SWIDTH 855 0
DWIDTH 19 0
BBX 20 13 0 1
BITMAP
0000E0
000090
3CF190
639E90
410C90
8D6B90
9D6B90
9D6990
C56C10
E56E30
7FFFF0
7FFFE0
3FDBC0
ENDCHAR
STARTCHAR 0027
ENCODING 39
SWIDTH 270 0
DWIDTH 6 0
BBX 7 11 0 6
BITMAP
38
44
82
82
82
82
82
C6
FE
7C
38
ENDCHAR
STARTCHAR 0028
ENCODING 40
SWIDTH 540 0
DWIDTH 12 0
BBX 12 24 0 -5
BITMAP
03E0
0C10
1810
2010
6030
41F0
87F0
87E0
8E00
8C00
8800
8800
8800
8800
8800
8400
C600
E1E0
6010
7810
3C10
1FF0
0FF0
03E0
ENDCHAR
STARTCHAR 0029
ENCODING 41
SWIDTH 540 0
DWIDTH 12 0
BBX 12 24 0 -5
BITMAP
7C00
8300
8180
8040
C020
F820
FE10
7E10
0710
0310
0110
0110
0110
0110
0110
0210
0630
7830
8060
81E0
83C0
FF80
FF00
7C00
ENDCHAR
STARTCHAR 002A
ENCODING 42
SWIDTH 450 0
DWIDTH 10 0
BBX 11 13 0 -2
BITMAP
0E00
1B00
3180
E060
8020
C060
C060
E0E0
60C0
64C0
7FC0
7FC0
3B80
ENDCHAR
STARTCHAR 002B
ENCODING 43
SWIDTH 495 0
DWIDTH 11 0
BBX 11 13 0 -2
BITMAP
0E00
1100
1100
71C0
8020
8020
8020
F1E0
F1E0
71C0
1F00
1F00
0E00
ENDCHAR
STARTCHAR 002C
ENCODING 44
SWIDTH 270 0
DWIDTH 6 0
BBX 7 11 0 -6
BITMAP
38
44
82
82
82
82
82
C6
FE
7C
38
ENDCHAR
STARTCHAR 002D
ENCODING 45
SWIDTH 270 0
DWIDTH 6 0
BBX 7 9 0 1
BITMAP
38
44
82
82
84
C6
FE
7C
38
ENDCHAR
STARTCHAR 002E
ENCODING 46
SWIDTH 270 0
DWIDTH 6 0
BBX 7 9 0 -4
BITMAP
38
44
82
82
84
C6
FE
7C
38
ENDCHAR
STARTCHAR 002F
ENCODING 47
SWIDTH 450 0
DWIDTH 10 0
BBX 11 25 0 -6
BITMAP
01C0
0220
0220
0420
0420
0460
0860
0860
18C0
10C0
10C0
2180
2180
2180
4300
4300
4700
8600
8600
8E00
8C00
8C00
F800
F800
7000
ENDCHAR
STARTCHAR 0030
ENCODING 48
SWIDTH 810 0
DWIDTH 18 0
BBX 19 21 0 -4
BITMAP
03F800
0C0E00
180300
200080
61E0C0
47F840
87FC60
8E1C20
8C0C20
880420
880420
840C20
861860
C1E060
E000E0
6000C0
7803C0
3C0F80
1FFF00
0FFE00
03F800
ENDCHAR
STARTCHAR 0031
ENCODING 49
SWIDTH 225 0
DWIDTH 5 0
BBX 6 21 0 -4
BITMAP
78
8C
84
84
84
84
84
84
84
84
84
84
84
84
84
84
84
8C
FC
FC
78
ENDCHAR
STARTCHAR 0032
ENCODING 50
SWIDTH 585 0
DWIDTH 13 0
BBX 14 21 0 -4
BITMAP
0F80
3060
6010
4008
8388
8784
87C4
84C4
FD84
FF0C
FF1C
7C1C
3838
70F8
C00C
8004
8004
800C
FFFC
FFF8
7FF8
ENDCHAR
STARTCHAR 0033
ENCODING 51
SWIDTH 495 0
DWIDTH 11 0
BBX 12 21 0 -4
BITMAP
0F00
30C0
4020
C020
8610
8F10
8F10
8E10
F010
F030
7810
1F10
1F10
7E10
8010
8030
8030
80E0
FFE0
FFC0
7F00
ENDCHAR
STARTCHAR 0034
ENCODING 52
SWIDTH 540 0
DWIDTH 12 0
BBX 12 21 0 -4
BITMAP
70E0
8910
8910
8910
8910
8910
8910
8910
8710
8010
C010
C010
7010
7F10
3F10
0F10
0110
0110
01F0
01F0
00E0
ENDCHAR
STARTCHAR 0035
ENCODING 53
SWIDTH 495 0
DWIDTH 11 0
BBX 13 21 0 -4
BITMAP
7FE0
8010
8010
8010
8FF0
80F0
8030
8020
8010
C008
FE08
FF08
7F08
7E08
8018
8018
8038
C0F0
FFE0
FFC0
7F00
ENDCHAR
STARTCHAR 0036
ENCODING 54
SWIDTH 585 0
DWIDTH 13 0
BBX 14 21 0 -4
BITMAP
0FC0
1820
2010
4008
C788
8858
8038
8008
8008
8704
8F84
8F84
8F84
8704
C00C
C00C
E01C
7078
3FF0
1FE0
0FC0
ENDCHAR
STARTCHAR 0037
ENCODING 55
SWIDTH 540 0
DWIDTH 12 0
BBX 13 21 0 -4
BITMAP
7FF0
8008
8008
8008
FE08
FE18
7C18
0430
0430
0C30
0860
0860
0860
10C0
10C0
10C0
1180
1980
1F80
1F00
0F00
ENDCHAR
STARTCHAR 0038
ENCODING 56
SWIDTH 540 0
DWIDTH 12 0
BBX 13 21 0 -4
BITMAP
1F00
30C0
4020
C030
8710
8710
8710
C010
C030
4010
C018
8708
8F08
8708
8008
C018
E038
7070
7FF0
3FE0
0F80
ENDCHAR
STARTCHAR 0039
ENCODING 57
SWIDTH 585 0
DWIDTH 13 0
BBX 13 21 0 -4
BITMAP
0F80
3060
6020
4010
8708
8F88
8F88
8F88
8708
8008
C008
E008
7088
4F08
4008
4018
6038
7070
7FE0
3FE0
0F80
ENDCHAR
STARTCHAR 003A
ENCODING 58
SWIDTH 270 0
DWIDTH 6 0
BBX 7 14 0 -4
BITMAP
38
44
82
82
C4
FE
C6
82
82
84
C6
FE
7C
38
ENDCHAR
STARTCHAR 003B
ENCODING 59
SWIDTH 270 0
DWIDTH 6 0
BBX 7 16 0 -6
BITMAP
38
44
82
82
C4
FE
C4
82
82
82
82
82
C6
FE
7C
38
ENDCHAR
STARTCHAR 003C
ENCODING 60
SWIDTH 315 0
DWIDTH 7 0
BBX 8 13 0 -2
BITMAP
1E
33
61
41
83
87
83
C1
E1
73
7F
3F
0E
ENDCHAR
STARTCHAR 003D
ENCODING 61
SWIDTH 495 0
DWIDTH 11 0
BBX 11 13 0 -2
BITMAP
7FC0
8020
8020
8020
8020
FFE0
8020
8020
8020
8020
FFE0
FFE0
7FC0
ENDCHAR
STARTCHAR 003E
ENCODING 62
SWIDTH 315 0
DWIDTH 7 0
BBX 8 13 0 -2
BITMAP
70
CC
84
82
C1
E1
C1
83
87
CE
FE
FC
70
ENDCHAR
STARTCHAR 003F
ENCODING 63
SWIDTH 585 0
DWIDTH 13 0
BBX 14 21 0 -4
BITMAP
0FC0
1020
2010
4008
8704
8F84
8F84
8E84
DF04
F00C
F01C
703C
1FF8
31F8
21F0
21E0
2180
3180
3F80
1F00
0E00
ENDCHAR
STARTCHAR 0040
ENCODING 64
SWIDTH 810 0
DWIDTH 18 0
BBX 19 21 0 -4
BITMAP
03F800
0E0E00
180300
200080
61E0C0
461840
C40860
88C420
89E420
89E420
882420
842020
862060
C1E060
E000E0
6000C0
7803C0
3E0780
1FFF00
0FFE00
03F800
ENDCHAR
STARTCHAR 0041
ENCODING 65
SWIDTH 585 0
DWIDTH 13 0
BBX 18 26 0 -9
BITMAP
0FC000
102000
201000
400800
C78400
8FC400
8FC400
8EC400
8F8400
8F0400
880400
880400
884400
8FC400
8FC400
8FC400
8C4400
8C4400
FC4300
FC40C0
786040
007040
0038C0
003FC0
001FC0
000780
ENDCHAR
STARTCHAR 0042
ENCODING 66
SWIDTH 495 0
DWIDTH 11 0
BBX 12 21 0 -4
BITMAP
0F00
30C0
4020
4020
8410
8E10
8E10
8C10
9010
9030
9010
8C10
8E10
8E10
8E10
8830
8830
8860
FFE0
FFC0
7700
ENDCHAR
STARTCHAR 0043
ENCODING 67
SWIDTH 540 0
DWIDTH 12 0
BBX 12 21 0 -4
BITMAP
03E0
0C10
1810
2010
61F0
43F0
87F0
8FE0
8E00
8C00
8800
8C00
8600
C3E0
E1F0
6010
7810
3C10
1FF0
0FF0
03E0
ENDCHAR
STARTCHAR 0044
ENCODING 68
SWIDTH 675 0
DWIDTH 15 0
BBX 16 21 0 -4
BITMAP
7FC0
8070
8018
8004
8F06
8FC2
8FC3
88E1
8861
8821
8821
8841
88C1
8F03
8807
8806
881E
883C
FFF8
FFF0
7FC0
ENDCHAR
STARTCHAR 0045
ENCODING 69
SWIDTH 540 0
DWIDTH 12 0
BBX 12 21 0 -4
BITMAP
03E0
0C10
1810
2010
61F0
43F0
87F0
8010
8010
8010
8010
87F0
83F0
C1F0
E010
6010
7810
3C10
1FF0
0FF0
03E0
ENDCHAR
STARTCHAR 0046
ENCODING 70
SWIDTH 450 0
DWIDTH 10 0
BBX 11 21 0 -4
BITMAP
0FC0
3020
4020
4020
8FE0
8FE0
8FE0
8040
8020
8020
8020
8060
8FE0
8FE0
8FC0
8800
8800
8800
F800
F800
7000
ENDCHAR
STARTCHAR 0047
ENCODING 71
SWIDTH 810 0
DWIDTH 18 0
BBX 19 21 0 -4
BITMAP
03F000
0C0C00
180300
200180
600080
41F080
87F980
8FFFC0
8E8020
8C8020
88C020
8CFC20
86F820
C1F060
E000E0
6000C0
7803C0
3E0780
1FFF00
0FFE00
03F800
ENDCHAR
STARTCHAR 0048
ENCODING 72
SWIDTH 630 0
DWIDTH 14 0
BBX 18 26 0 -9
BITMAP
701C00
882200
882200
882200
882200
882200
8FE200
800200
800200
800200
8FE200
8FE200
8FE200
882200
882200
882200
882200
882200
F82380
F82040
703040
003040
001840
001FC0
000FC0
000780
ENDCHAR
STARTCHAR 0049
ENCODING 73
SWIDTH 225 0
DWIDTH 5 0
BBX 6 21 0 -4
BITMAP
78
8C
84
84
84
84
84
84
84
84
84
84
84
84
84
84
84
8C
FC
FC
78
ENDCHAR
STARTCHAR 004A
ENCODING 74
SWIDTH 540 0
DWIDTH 12 0
BBX 13 21 0 -4
BITMAP
00F0
0118
0108
0108
0108
0108
0108
0108
0108
7108
8908
8908
8908
8608
8008
C018
E038
7070
7FF0
3FE0
0F80
ENDCHAR
STARTCHAR 004B
ENCODING 75
SWIDTH 540 0
DWIDTH 12 0
BBX 16 26 0 -9
BITMAP
7000
8800
8800
8BC0
8F30
8E10
8E10
8C20
8030
8010
8008
8E08
8F08
8F08
8908
8908
8908
8908
F90E
F901
7181
0181
00E3
00FF
007F
001E
ENDCHAR
STARTCHAR 004C
ENCODING 76
SWIDTH 405 0
DWIDTH 9 0
BBX 10 21 0 -4
BITMAP
7800
8400
8400
8400
8400
8400
8400
8400
8400
8400
8400
8400
8400
8380
8040
C040
C040
7040
7FC0
3FC0
0F80
ENDCHAR
STARTCHAR 004D
ENCODING 77
SWIDTH 810 0
DWIDTH 18 0
BBX 22 26 0 -9
BITMAP
0FBE00
304180
400040
400040
861820
8F1C20
8F1C20
891420
891420
891420
891420
891420
891420
891420
891420
891420
891420
891420
F9F438
F9F404
70E604
000604
00038C
0003FC
0001FC
000078
ENDCHAR
STARTCHAR 004E
ENCODING 78
SWIDTH 540 0
DWIDTH 12 0
BBX 16 26 0 -9
BITMAP
0F00
30C0
4020
4020
8610
8F10
8F10
8910
8910
8910
8910
8910
8910
8910
8910
8910
8910
8910
F90E
F903
7181
0181
00E3
00FF
007F
001E
ENDCHAR
STARTCHAR 004F
ENCODING 79
SWIDTH 810 0
DWIDTH 18 0
BBX 19 21 0 -4
BITMAP
03F800
0C0E00
180300
200080
61E0C0
47F840
87FC60
8E1C20
8C0C20
880420
880420
840C20
861860
C1E060
E000E0
6000C0
7803C0
3C0F80
1FFF00
0FFE00
03F800
ENDCHAR
STARTCHAR 0050
ENCODING 80
SWIDTH 585 0
DWIDTH 13 0
BBX 13 21 0 -4
BITMAP
0F80
3060
6030
4010
8708
8F88
8F88
8E88
8F88
8F08
8C18
8C38
8C70
8FF0
8FE0
8F80
8C00
8C00
FC00
FC00
7800
ENDCHAR
STARTCHAR 0051
ENCODING 81
SWIDTH 810 0
DWIDTH 18 0
BBX 19 26 0 -9
BITMAP
03F800
0C0600
180300
200080
40E0C0
43F840
87FC20
8FFC20
887C20
883C20
881420
861C20
C71860
C11060
6100C0
7101C0
3F0380
1F1F80
0F1F00
011C00
011000
011000
011000
01F000
01F000
00E000
ENDCHAR
STARTCHAR 0052
ENCODING 82
SWIDTH 585 0
DWIDTH 13 0
BBX 14 21 0 -4
BITMAP
0FC0
1060
2010
4008
C70C
8F84
8F84
8E84
8F84
8F04
880C
881C
8838
8878
8878
8C08
8E08
8F08
FFF8
FBF8
70F0
ENDCHAR
STARTCHAR 0053
ENCODING 83
SWIDTH 495 0
DWIDTH 11 0
BBX 12 21 0 -4
BITMAP
03E0
0610
0810
1810
1070
10F0
10F0
10E0
1080
1080
1080
1080
1080
7080
E080
8180
8180
8780
FF00
FE00
7C00
ENDCHAR
STARTCHAR 0054
ENCODING 84
SWIDTH 540 0
DWIDTH 12 0
BBX 13 21 0 -4
BITMAP
7FF0
8008
8008
8008
F0F8
F0F8
70F0
1080
1080
1080
1080
1080
1080
1080
1080
1080
1080
1880
1F80
1F80
0F00
ENDCHAR
STARTCHAR 0055
ENCODING 85
SWIDTH 540 0
DWIDTH 12 0
BBX 12 21 0 -4
BITMAP
70E0
8910
8910
8910
8910
8910
8910
8910
8910
8910
8910
8910
8910
8610
8010
C030
C030
70E0
7FE0
3FC0
0F00
ENDCHAR
STARTCHAR 0056
ENCODING 86
SWIDTH 585 0
DWIDTH 13 0
BBX 15 21 -1 -4
BITMAP
381C
4C32
8662
C662
C246
E3C6
63C6
618E
718C
318C
301C
1818
1818
1830
0C30
0C30
0C60
0660
07E0
07C0
03C0
ENDCHAR
STARTCHAR 0057
ENCODING 87
SWIDTH 810 0
DWIDTH 18 0
BBX 19 21 0 -4
BITMAP
71E3C0
8A1460
8A1420
8A1420
8A1420
8A1420
8A1420
8A1420
8A1420
8A1420
8A1420
8A1420
8A1420
861C20
800020
C00060
C00060
7041C0
7FFFC0
3FFF80
0FBE00
ENDCHAR
STARTCHAR 0058
ENCODING 88
SWIDTH 540 0
DWIDTH 12 0
BBX 12 21 0 -4
BITMAP
70E0
8910
8910
8910
8910
8910
8610
8010
8010
C030
8010
8010
8610
8F10
8F10
8910
8910
8910
F9F0
F9F0
70E0
ENDCHAR
STARTCHAR 0059
ENCODING 89
SWIDTH 540 0
DWIDTH 12 0
BBX 12 21 0 -4
BITMAP
70E0
8910
8910
8910
8910
8910
8610
8010
C010
C010
F010
8F10
8F10
8610
8010
C030
C030
70E0
7FE0
3FC0
0F00
ENDCHAR
STARTCHAR 005A
ENCODING 90
SWIDTH 540 0
DWIDTH 12 0
BBX 14 21 0 -4
BITMAP
3FF8
4008
4004
4008
7E0C
7C1C
7C18
3830
0870
1060
30E0
20C0
4180
41F0
8008
8004
8004
800C
FFFC
FFF8
7FF0
ENDCHAR
STARTCHAR 005B
ENCODING 91
SWIDTH 405 0
DWIDTH 9 0
BBX 10 28 0 -8
BITMAP
0F80
3040
4040
4040
8040
83C0
87C0
8780
8400
8400
8400
8400
8400
8400
8400
8400
8400
8400
8400
8400
8400
8380
C040
C040
7040
7FC0
3FC0
0F80
ENDCHAR
STARTCHAR 005C
ENCODING 92
SWIDTH 495 0
DWIDTH 11 0
BBX 12 25 -1 -6
BITMAP
3800
4400
4400
4200
4200
C200
6100
6100
7100
3080
3080
3880
1840
1840
0C60
0C20
0C20
0610
0610
0610
0310
0310
03F0
01F0
00E0
ENDCHAR
STARTCHAR 005D
ENCODING 93
SWIDTH 405 0
DWIDTH 9 0
BBX 10 28 0 -8
BITMAP
7C00
C300
8080
8080
8040
F040
F840
7840
0840
0840
0840
0840
0840
0840
0840
0840
0840
0840
0840
0840
0840
7040
80C0
80C0
8380
FF80
FF00
7C00
ENDCHAR
STARTCHAR 005E
ENCODING 94
SWIDTH 405 0
DWIDTH 9 0
BBX 10 10 0 7
BITMAP
0C00
3300
6180
C0C0
8040
8040
CCC0
FFC0
FFC0
7F80
ENDCHAR
STARTCHAR 005F
ENCODING 95
SWIDTH 585 0
DWIDTH 13 0
BBX 14 8 0 -4
BITMAP
7FF8
8004
8004
8004
8004
FFFC
FFFC
7FF8
ENDCHAR
STARTCHAR 0060
ENCODING 96
SWIDTH 315 0
DWIDTH 7 0
BBX 8 11 0 6
BITMAP
38
C4
82
82
81
C1
C1
63
7F
3F
1C
ENDCHAR
STARTCHAR 0061
ENCODING 97
SWIDTH 585 0
DWIDTH 13 0
BBX 13 17 0 -4
BITMAP
0F80
3040
2020
4010
C018
8708
8F88
8F88
8E88
8F88
C788
C088
E088
7088
3FF8
3FF8
0F70
ENDCHAR
STARTCHAR 0062
ENCODING 98
SWIDTH 585 0
DWIDTH 13 0
BBX 14 21 0 -4
BITMAP
7000
8800
8800
8800
8F80
8860
8810
8808
8F08
8F84
8F84
8F84
8D84
8704
C00C
C00C
E018
7878
3FF0
1FE0
0FC0
ENDCHAR
STARTCHAR 0063
ENCODING 99
SWIDTH 405 0
DWIDTH 9 0
BBX 10 17 0 -4
BITMAP
0F80
18C0
2040
4040
40C0
87C0
8FC0
8F80
8E00
8780
C0C0
C040
6040
78C0
3FC0
1FC0
0F80
ENDCHAR
STARTCHAR 0064
ENCODING 100
SWIDTH 585 0
DWIDTH 13 0
BBX 14 21 0 -4
BITMAP
0038
0044
0044
0044
07C4
1844
2044
4044
43C4
87C4
87C4
87C4
86C4
8384
C00C
C00C
601C
7878
3FF0
1FE0
0FC0
ENDCHAR
STARTCHAR 0065
ENCODING 101
SWIDTH 540 0
DWIDTH 12 0
BBX 13 17 0 -4
BITMAP
0FC0
1820
2010
4008
C008
8618
8C38
8878
88F0
87F0
C030
C010
6010
7830
3FF0
1FF0
0FE0
ENDCHAR
STARTCHAR 0066
ENCODING 102
SWIDTH 540 0
DWIDTH 12 0
BBX 13 21 0 -4
BITMAP
0F80
30C0
4020
4030
8610
8F10
8F10
8F10
8FF0
8010
8008
8008
8018
8FF8
8FF8
8FF0
8C00
8C00
FC00
FC00
7800
ENDCHAR
STARTCHAR 0067
ENCODING 103
SWIDTH 585 0
DWIDTH 13 0
BBX 14 29 0 -16
BITMAP
0FC0
1060
2010
4008
800C
8704
8F84
8F84
8E84
8784
C084
E084
7084
7F84
3004
600C
401C
87FC
8FC4
8FC4
8E84
8784
800C
C00C
E01C
7078
3FF0
1FE0
0FC0
ENDCHAR
STARTCHAR 0068
ENCODING 104
SWIDTH 540 0
DWIDTH 12 0
BBX 16 26 0 -9
BITMAP
7000
8800
8800
8800
8F00
88C0
8020
8020
8010
8610
8F10
8F10
8910
8910
8910
8910
8910
8910
F90E
F903
7181
0181
00E3
00FF
007F
001E
ENDCHAR
STARTCHAR 0069
ENCODING 105
SWIDTH 225 0
DWIDTH 5 0
BBX 7 21 0 -4
BITMAP
78
84
82
82
84
FE
8C
84
84
84
84
84
84
84
84
84
84
8C
FC
F8
70
ENDCHAR
STARTCHAR 006A
ENCODING 106
SWIDTH 225 0
DWIDTH 5 0
BBX 10 26 -3 -9
BITMAP
0F00
1080
1080
1040
1080
1FC0
1180
1080
1080
1080
1080
1080
1080
1080
1080
1080
1080
1080
6080
8180
8180
8300
8700
FE00
FE00
7800
ENDCHAR
STARTCHAR 006B
ENCODING 107
SWIDTH 495 0
DWIDTH 11 0
BBX 16 26 0 -9
BITMAP
7000
8800
8800
8800
8BC0
8E30
8E10
8E10
8C30
8030
8070
8020
8010
8E10
8E10
8E10
8E10
8A10
FA0E
FA03
7301
0381
01C3
01FF
00FF
003E
ENDCHAR
STARTCHAR 006C
ENCODING 108
SWIDTH 225 0
DWIDTH 5 0
BBX 6 21 0 -4
BITMAP
78
84
84
84
84
84
84
84
84
84
84
84
84
84
84
84
84
8C
FC
FC
78
ENDCHAR
STARTCHAR 006D
ENCODING 109
SWIDTH 810 0
DWIDTH 18 0
BBX 22 22 0 -9
BITMAP
0FBE00
304180
600040
400040
800020
861820
8F1C20
8F1C20
891420
891420
891420
891420
891420
891420
F9F418
F9F404
70E604
000604
00038C
0003FC
0001FC
000078
ENDCHAR
STARTCHAR 006E
ENCODING 110
SWIDTH 540 0
DWIDTH 12 0
BBX 16 22 0 -9
BITMAP
0F00
30C0
6020
4020
8010
8610
8F10
8F10
8910
8910
8910
8910
8910
8910
F90E
F903
7181
0181
00E3
00FF
007F
001E
ENDCHAR
STARTCHAR 006F
ENCODING 111
SWIDTH 585 0
DWIDTH 13 0
BBX 14 17 0 -4
BITMAP
0FC0
1860
2010
4008
C00C
8704
8F84
8F84
8F84
8704
C00C
C00C
6018
7878
3FF0
1FE0
0FC0
ENDCHAR
STARTCHAR 0070
ENCODING 112
SWIDTH 585 0
DWIDTH 13 0
BBX 14 22 0 -9
BITMAP
0FC0
1860
2010
4008
400C
8704
8F84
8F84
8D84
8F84
8F0C
880C
881C
8878
8FF0
8FE0
8FC0
8C00
8C00
FC00
FC00
7800
ENDCHAR
STARTCHAR 0071
ENCODING 113
SWIDTH 585 0
DWIDTH 13 0
BBX 14 22 0 -9
BITMAP
0FC0
1860
2010
4008
C008
8384
87C4
87C4
86C4
87C4
C3C4
C044
E044
7844
3FC4
1FC4
0FC4
00C4
00C4
00FC
00FC
0078
ENDCHAR
STARTCHAR 0072
ENCODING 114
SWIDTH 360 0
DWIDTH 8 0
BBX 9 17 0 -4
BITMAP
0F00
3180
6080
4080
8080
8380
8780
8700
8400
8400
8400
8400
8400
CC00
FC00
FC00
7800
ENDCHAR
STARTCHAR 0073
ENCODING 115
SWIDTH 495 0
DWIDTH 11 0
BBX 12 17 0 -4
BITMAP
03E0
0610
0810
0810
1070
10F0
10F0
10E0
1080
7080
E080
8180
8180
8700
FF00
FE00
7800
ENDCHAR
STARTCHAR 0074
ENCODING 116
SWIDTH 540 0
DWIDTH 12 0
BBX 12 19 0 -4
BITMAP
7800
8C00
8FE0
8010
8010
8010
8010
8FF0
8F10
8F10
8F10
8610
8010
C030
C070
70E0
7FE0
3FC0
0F00
ENDCHAR
STARTCHAR 0075
ENCODING 117
SWIDTH 540 0
DWIDTH 12 0
BBX 12 17 0 -4
BITMAP
70E0
8910
8910
8910
8910
8910
8910
8910
8910
8610
8010
C030
C070
70E0
7FE0
3FC0
0F00
ENDCHAR
STARTCHAR 0076
ENCODING 118
SWIDTH 495 0
DWIDTH 11 0
BBX 12 17 0 -4
BITMAP
71C0
9B20
8A10
8E10
8610
C430
C430
C060
6060
6060
70C0
30C0
31C0
1980
1F80
1F00
0E00
ENDCHAR
STARTCHAR 0077
ENCODING 119
SWIDTH 810 0
DWIDTH 18 0
BBX 19 17 0 -4
BITMAP
70E3C0
891660
891420
891420
891420
891420
891420
891420
891420
861820
800020
C00060
E000E0
7041C0
7FFFC0
3FFF80
0FBE00
ENDCHAR
STARTCHAR 0078
ENCODING 120
SWIDTH 540 0
DWIDTH 12 0
BBX 12 17 0 -4
BITMAP
70E0
8910
8910
8910
8610
8010
C030
E070
C030
8010
8610
8F10
8F10
8910
F9F0
F9F0
70E0
ENDCHAR
STARTCHAR 0079
ENCODING 121
SWIDTH 540 0
DWIDTH 12 0
BBX 12 22 0 -9
BITMAP
70E0
8910
8910
8910
8910
8910
8910
8910
8910
8610
8010
C010
E010
7110
7E10
3810
1030
1070
18E0
1FE0
1FC0
0F00
ENDCHAR
STARTCHAR 007A
ENCODING 122
SWIDTH 540 0
DWIDTH 12 0
BBX 13 17 0 -4
BITMAP
3FF0
4008
4008
4018
4018
7C38
7870
70F0
61E0
63E0
C030
8010
8010
8030
FFF0
FFE0
7FC0
ENDCHAR
STARTCHAR 007B
ENCODING 123
SWIDTH 360 0
DWIDTH 8 0
BBX 10 28 0 -8
BITMAP
0F80
3040
4040
4040
8040
83C0
87C0
8780
8400
8400
8400
8400
8400
8400
8400
8400
8400
8400
8400
8400
8400
8380
C040
C040
7040
7FC0
3FC0
0F80
ENDCHAR
STARTCHAR 007C
ENCODING 124
SWIDTH 225 0
DWIDTH 5 0
BBX 6 25 0 -6
BITMAP
78
84
84
84
84
84
84
84
84
84
84
84
84
84
84
84
84
84
84
84
84
84
FC
FC
78
ENDCHAR
STARTCHAR 007D
ENCODING 125
SWIDTH 360 0
DWIDTH 8 0
BBX 10 28 0 -8
BITMAP
7C00
C300
8080
8080
8040
F040
F840
7840
0840
0840
0840
0840
0840
0840
0840
0840
0840
0840
0840
0840
0840
7040
80C0
80C0
8380
FF80
FF00
7C00
ENDCHAR
STARTCHAR 007E
ENCODING 126
SWIDTH 450 0
DWIDTH 10 0
BBX 11 9 0 8
BITMAP
3DC0
4260
8020
8020
8020
CC60
FFE0
FFC0
7780
ENDCHAR
STARTCHAR 00A1
ENCODING 161
SWIDTH 225 0
DWIDTH 5 0
BBX 7 21 -1 -4
BITMAP
3C
42
82
82
C4
FE
C6
84
84
84
84
84
84
84
84
84
84
C4
FC
7C
38
ENDCHAR
STARTCHAR 00A2
ENCODING 162
SWIDTH 360 0
DWIDTH 8 0
BBX 10 21 0 -4
BITMAP
0E00
1300
1100
1E80
2040
4040
80C0
87C0
8F80
8F80
8C00
8780
C080
E040
F0C0
7FC0
31C0
1380
1F00
1F00
0E00
ENDCHAR
STARTCHAR 00A3
ENCODING 163
SWIDTH 585 0
DWIDTH 13 0
BBX 15 21 0 -4
BITMAP
1F80
3080
4040
80C0
8FC0
8040
8040
8020
8078
8FC4
8FC2
8FC2
8FC2
8F82
8006
8006
800C
801C
FFF8
FFF8
7FE0
ENDCHAR
STARTCHAR 00A4
ENCODING 164
SWIDTH 585 0
DWIDTH 13 0
BBX 14 21 0 -4
BITMAP
00F0
0708
0C04
180C
70FC
801C
8008
8008
8018
E3F8
8018
8008
8018
F0F8
F008
7804
1C04
0F0C
07FC
03F8
00F0
ENDCHAR
STARTCHAR 00A5
ENCODING 165
SWIDTH 585 0
DWIDTH 13 0
BBX 14 23 0 -4
BITMAP
3870
4890
4488
4488
4488
4488
4488
4708
4018
E038
8004
8004
F87C
800C
8004
8004
800C
F87C
F878
7CF8
0FC0
0F80
0780
ENDCHAR
STARTCHAR 00A7
ENCODING 167
SWIDTH 675 0
DWIDTH 15 0
BBX 16 21 0 -4
BITMAP
03E0
0610
0810
101E
10E2
1181
1103
110F
110F
110E
7108
E108
8308
8608
9818
F018
F030
70F0
1FE0
0FC0
0780
ENDCHAR
STARTCHAR 00A8
ENCODING 168
SWIDTH 450 0
DWIDTH 10 0
BBX 11 9 0 16
BITMAP
7B80
CE40
8420
8420
8440
CE60
FFE0
FFC0
7B80
ENDCHAR
STARTCHAR 00A9
ENCODING 169
SWIDTH 810 0
DWIDTH 18 0
BBX 19 21 0 -4
BITMAP
03F000
0C0E00
100300
200180
43E080
463040
8C3840
88FC20
89FC20
89FC20
89FC20
8CF820
863060
C3E060
C000C0
6001C0
700380
3C0F80
1FFF00
0FFC00
03F000
ENDCHAR
STARTCHAR 00AA
ENCODING 170
SWIDTH 1080 0
DWIDTH 24 0
BBX 25 22 1 1
BITMAP
007E0000
00FFC000
01FFE000
01FFF000
03E3F800
03C1FC00
07C0FC00
0F807E00
3F803E00
7F803E00
3FF39E00
1F001C80
3FF1DF80
7C001F80
7E001F00
3E001F00
FE003E00
3F1C3E00
3F9C7C00
1FC0F800
00617000
001E0000
ENDCHAR
STARTCHAR 00AB
ENCODING 171
SWIDTH 540 0
DWIDTH 12 0
BBX 13 13 0 -2
BITMAP
1CE0
3390
6108
C208
8418
8438
8410
C208
E108
F398
7FF8
3FF0
1CE0
ENDCHAR
STARTCHAR 00AC
ENCODING 172
SWIDTH 1350 0
DWIDTH 30 0
BBX 29 22 1 0
BITMAP
003F8000
007FF000
00FFF800
01FFFC00
03F8FE00
03E03F00
07E01F80
0FC00F80
3FC007C0
FFC807C0
7F90C7C0
1F98C3C8
7F3DE3F8
FC2EC3F8
FE1DC3F0
7E0007F0
FF0707E0
7F800FC0
7EC71F80
18607F00
001DC400
00070000
ENDCHAR
STARTCHAR 00AE
ENCODING 174
SWIDTH 810 0
DWIDTH 18 0
BBX 19 21 0 -4
BITMAP
03F000
0C0E00
100300
200180
43E080
463040
8C1840
8C8C20
8CCC20
8C9C20
8D3C20
8D1820
849060
C3E060
C000C0
6001C0
700380
3C0F80
1FFF00
0FFC00
03F000
ENDCHAR
STARTCHAR 00AF
ENCODING 175
SWIDTH 585 0
DWIDTH 13 0
BBX 11 8 1 12
BITMAP
3FC0
4020
8020
8020
C020
FFE0
7FE0
3FC0
ENDCHAR
STARTCHAR 00B0
ENCODING 176
SWIDTH 270 0
DWIDTH 6 0
BBX 8 10 0 7
BITMAP
3C
42
81
91
81
81
C3
FF
7E
3C
ENDCHAR
STARTCHAR 00B1
ENCODING 177
SWIDTH 450 0
DWIDTH 10 0
BBX 11 18 0 -4
BITMAP
0E00
1300
3100
71C0
8040
8020
8020
8060
F1E0
F1E0
7FC0
8060
8020
8020
8060
FFE0
FFC0
7FC0
ENDCHAR
STARTCHAR 00B4
ENCODING 180
SWIDTH 315 0
DWIDTH 7 0
BBX 8 12 0 16
BITMAP
3C
62
42
C1
82
83
83
86
CE
FC
FC
78
ENDCHAR
STARTCHAR 00B5
ENCODING 181
SWIDTH 720 0
DWIDTH 16 0
BBX 17 22 0 -9
BITMAP
70E000
912000
891000
891000
891000
891000
891000
891000
891000
8E1E00
800100
800080
800080
80C180
8FFF80
8FFF00
8F3E00
880000
980000
F80000
F00000
700000
ENDCHAR
STARTCHAR 00B6
ENCODING 182
SWIDTH 720 0
DWIDTH 16 0
BBX 17 21 0 -4
BITMAP
0FFF00
300100
600080
400080
823880
8E3880
8E3880
8E3880
8E3880
823880
C03880
E03880
F83880
7E3880
3E3880
1E3880
063880
067980
07FF80
03FF00
01CF00
ENDCHAR
STARTCHAR 00B7
ENCODING 183
SWIDTH 225 0
DWIDTH 5 0
BBX 7 9 0 -4
BITMAP
38
44
82
82
84
C6
FE
7C
38
ENDCHAR
STARTCHAR 00B8
ENCODING 184
SWIDTH 360 0
DWIDTH 8 0
BBX 7 7 0 -7
BITMAP
0E
0E
0E
1E
FC
FC
F0
ENDCHAR
STARTCHAR 00BA
ENCODING 186
SWIDTH 1080 0
DWIDTH 24 0
BBX 25 22 1 1
BITMAP
007E0000
00FFC000
01FFE000
01FFF000
03E3F800
03C1FC00
07C0FC00
0F807E00
3F803E00
7F803E00
3FF39E00
1F001C80
3FF1DF80
7C001F80
7E001F00
3E001F00
FE003E00
3F1C3E00
3F9C7C00
1FC0F800
00617000
001E0000
ENDCHAR
STARTCHAR 00BB
ENCODING 187
SWIDTH 540 0
DWIDTH 12 0
BBX 13 13 0 -2
BITMAP
7380
8C40
8420
8430
C218
E108
C210
8438
8438
8C70
FFE0
FFC0
7380
ENDCHAR
STARTCHAR 00BF
ENCODING 191
SWIDTH 585 0
DWIDTH 13 0
BBX 14 21 0 -4
BITMAP
03C0
0620
0410
0410
0630
1FF0
3030
6010
C020
87F8
8F8C
8F84
8D84
8704
800C
C00C
E018
7078
7FF0
3FE0
0F80
ENDCHAR
STARTCHAR 00C0
ENCODING 192
SWIDTH 630 0
DWIDTH 14 0
BBX 18 36 0 -9
BITMAP
070000
188000
104000
104000
102000
182000
182000
0C6000
0FE000
07E000
0FC000
102000
201000
400800
C78400
8FC400
8FC400
8EC400
8F8400
8F0400
880400
880400
884400
8FC400
8FC400
8FC400
8C4400
8C4400
FC4300
FC40C0
786040
007040
0038C0
003FC0
001FC0
000780
ENDCHAR
STARTCHAR 00C1
ENCODING 193
SWIDTH 585 0
DWIDTH 13 0
BBX 18 37 0 -9
BITMAP
038000
044000
0C2000
082000
182000
106000
106000
10E000
18C000
1FC000
0F8000
0FC000
102000
201000
400800
C78400
8FC400
8FC400
8EC400
8F8400
8F0400
880400
880400
884400
8FC400
8FC400
8FC400
8C4400
8C4400
FC4300
FC40C0
786040
007040
0038C0
003FC0
001FC0
000780
ENDCHAR
STARTCHAR 00C2
ENCODING 194
SWIDTH 630 0
DWIDTH 14 0
BBX 18 35 0 -9
BITMAP
030000
0CC000
186000
303000
201000
231000
333000
3FF000
3FF000
1FE000
102000
201000
400800
C78400
8FC400
8FC400
8EC400
8F8400
8F0400
880400
880400
884400
8FC400
8FC400
8FC400
8C4400
8C4400
FC4300
FC40C0
786040
007040
0038C0
003FC0
001FC0
000780
ENDCHAR
STARTCHAR 00C3
ENCODING 195
SWIDTH 540 0
DWIDTH 12 0
BBX 18 34 0 -9
BITMAP
0F7000
109800
200800
200800
200800
331800
3FF800
3FF000
1FE000
102000
201000
400800
C78400
8FC400
8FC400
8EC400
8F8400
8F0400
880400
880400
884400
8FC400
8FC400
8FC400
8C4400
8C4400
FC4300
FC40C0
786040
007040
0038C0
003FC0
001FC0
000780
ENDCHAR
STARTCHAR 00C4
ENCODING 196
SWIDTH 540 0
DWIDTH 12 0
BBX 18 35 0 -9
BITMAP
0EE000
139000
210800
210800
211000
339800
3FF800
1FF000
0EE000
0FC000
102000
201000
400800
C78400
8FC400
8FC400
8EC400
8F8400
8F0400
880400
880400
884400
8FC400
8FC400
8FC400
8C4400
8C4400
FC4300
FC40C0
786040
007040
0038C0
003FC0
001FC0
000780
ENDCHAR
STARTCHAR 00C5
ENCODING 197
SWIDTH 540 0
DWIDTH 12 0
BBX 18 32 0 -9
BITMAP
078000
084000
102000
122000
102000
102000
1FE000
1FE000
2FD000
478800
C78400
8FC400
8FC400
8EC400
8F8400
8F0400
880400
880400
884400
8FC400
8FC400
8FC400
8C4400
8C4400
FC4300
FC40C0
786040
007040
0038C0
003FC0
001FC0
000780
ENDCHAR
STARTCHAR 00C6
ENCODING 198
SWIDTH 900 0
DWIDTH 20 0
BBX 21 21 0 -4
BITMAP
0FC1E0
307E10
601808
400018
8701F8
8F83F8
8F87F0
8F8010
8F0008
880008
880010
8807F8
8883F8
8F81F0
8F8010
8F8008
8C8408
9C8618
FCFFF8
F8FFF0
70FFE0
ENDCHAR
STARTCHAR 00C7
ENCODING 199
SWIDTH 495 0
DWIDTH 11 0
BBX 12 25 0 -8
BITMAP
03E0
0C20
1010
2030
41F0
C7F0
8FE0
8FC0
8C00
8800
8800
8800
C600
C1E0
E020
7010
7C30
3FF0
18F0
0860
0840
08E0
0FE0
0FC0
0780
ENDCHAR
STARTCHAR 00C8
ENCODING 200
SWIDTH 450 0
DWIDTH 10 0
BBX 12 31 0 -4
BITMAP
0700
1880
1040
1040
1020
1820
1820
0C60
0FE0
07E0
03E0
0C10
1810
2010
61F0
43F0
87F0
8010
8010
8010
8010
87F0
83F0
C1F0
E010
6010
7810
3C10
1FF0
0FF0
03E0
ENDCHAR
STARTCHAR 00C9
ENCODING 201
SWIDTH 450 0
DWIDTH 10 0
BBX 12 32 0 -4
BITMAP
0700
0880
1840
1040
3040
20C0
20C0
21C0
3180
3F80
1F00
0FE0
0C10
1810
2010
61F0
43F0
87F0
8010
8010
8010
8010
87F0
83F0
C1F0
E010
6010
7810
3C10
1FF0
0FF0
03E0
ENDCHAR
STARTCHAR 00CA
ENCODING 202
SWIDTH 540 0
DWIDTH 12 0
BBX 12 30 0 -4
BITMAP
0300
0CC0
1860
3030
2010
2310
3330
3FF0
3FF0
1FE0
0C10
1810
2010
61F0
43F0
87F0
8010
8010
8010
8010
87F0
83F0
C1F0
E010
6010
7810
3C10
1FF0
0FF0
03E0
ENDCHAR
STARTCHAR 00CB
ENCODING 203
SWIDTH 450 0
DWIDTH 10 0
BBX 13 30 0 -4
BITMAP
0EE0
1390
2108
2108
2110
3398
3FF8
1FF0
0EE0
03E0
0C10
1810
2010
61F0
43F0
87F0
8010
8010
8010
8010
87F0
83F0
C1F0
E010
6010
7810
3C10
1FF0
0FF0
03E0
ENDCHAR
STARTCHAR 00CC
ENCODING 204
SWIDTH 180 0
DWIDTH 4 0
BBX 8 31 -1 -4
BITMAP
38
C4
82
82
81
C1
C1
63
7F
3F
3C
46
42
42
42
42
42
42
42
42
42
42
42
42
42
42
42
46
7E
7E
3C
ENDCHAR
STARTCHAR 00CD
ENCODING 205
SWIDTH 180 0
DWIDTH 4 0
BBX 8 32 0 -4
BITMAP
1C
22
61
41
C1
83
83
87
C6
FE
7C
78
8C
84
84
84
84
84
84
84
84
84
84
84
84
84
84
84
8C
FC
FC
78
ENDCHAR
STARTCHAR 00CE
ENCODING 206
SWIDTH 180 0
DWIDTH 4 0
BBX 10 30 -2 -4
BITMAP
0C00
3300
6180
C0C0
8040
8C40
CCC0
FFC0
FFC0
7F80
2300
2100
2100
2100
2100
2100
2100
2100
2100
2100
2100
2100
2100
2100
2100
2100
2300
3F00
3F00
1E00
ENDCHAR
STARTCHAR 00CF
ENCODING 207
SWIDTH 180 0
DWIDTH 4 0
BBX 11 30 -3 -4
BITMAP
3B80
4E40
8420
8420
8440
CE60
FFE0
7FC0
3B80
0F00
1180
1080
1080
1080
1080
1080
1080
1080
1080
1080
1080
1080
1080
1080
1080
1080
1180
1F80
1F80
0F00
ENDCHAR
STARTCHAR 00D0
ENCODING 208
SWIDTH 1080 0
DWIDTH 24 0
BBX 25 22 1 1
BITMAP
007E0000
00FFC000
01FFE000
01FFF000
03E3F800
03C1FC00
07C0FC00
0F807E00
3F803E00
7F803E00
3FF39E00
1F001C80
3FF1DF80
7C001F80
7E001F00
3E001F00
FE003E00
3F1C3E00
3F9C7C00
1FC0F800
00617000
001E0000
ENDCHAR
STARTCHAR 00D1
ENCODING 209
SWIDTH 495 0
DWIDTH 11 0
BBX 16 31 0 -9
BITMAP
1EE0
2130
4010
4010
4010
6F30
7FF0
7FE0
7BE0
8610
8F10
8F10
8910
8910
8910
8910
8910
8910
8910
8910
8910
8910
8910
F90E
F903
7181
0181
00E3
00FF
007F
001E
ENDCHAR
STARTCHAR 00D2
ENCODING 210
SWIDTH 765 0
DWIDTH 17 0
BBX 19 32 0 -4
BITMAP
01C000
062000
041000
041000
040800
060800
060800
031800
03F800
01F800
00E000
03F800
0E0600
180300
200080
61F0C0
47F840
C7FC60
8E1C20
8C0C20
880420
880420
840C20
861820
C1F060
E000E0
6000C0
7803C0
3E0780
1FFF00
0FFE00
03F800
ENDCHAR
STARTCHAR 00D3
ENCODING 211
SWIDTH 765 0
DWIDTH 17 0
BBX 19 32 0 -4
BITMAP
003800
004400
00C200
008200
018200
010600
010600
010E00
018C00
01FC00
00F800
03F800
0E0600
180300
200080
61F0C0
47F840
C7FC60
8E1C20
8C0C20
880420
880420
840C20
861820
C1F060
E000E0
6000C0
7803C0
3E0780
1FFF00
0FFE00
03F800
ENDCHAR
STARTCHAR 00D4
ENCODING 212
SWIDTH 765 0
DWIDTH 17 0
BBX 19 30 0 -4
BITMAP
00C000
033000
061800
0C0C00
080400
08C400
0CCC00
0FFC00
0FFC00
07F800
0E0600
180300
200080
61F0C0
47F840
C7FC60
8E1C20
8C0C20
880420
880420
840C20
861820
C1F060
E000E0
6000C0
7803C0
3E0780
1FFF00
0FFE00
03F800
ENDCHAR
STARTCHAR 00D5
ENCODING 213
SWIDTH 765 0
DWIDTH 17 0
BBX 19 29 0 -4
BITMAP
03DC00
042600
080200
080200
080200
0CC600
0FFE00
0FFC00
07F800
0E0600
180300
200080
61F0C0
47F840
C7FC60
8E1C20
8C0C20
880420
880420
840C20
861820
C1F060
E000E0
6000C0
7803C0
3E0780
1FFF00
0FFE00
03F800
ENDCHAR
STARTCHAR 00D6
ENCODING 214
SWIDTH 765 0
DWIDTH 17 0
BBX 19 30 0 -4
BITMAP
03B800
04E400
084200
084200
084400
0CE600
0FFE00
07FC00
03B800
03F800
0E0600
180300
200080
61F0C0
47F840
C7FC60
8E1C20
8C0C20
880420
880420
840C20
861820
C1F060
E000E0
6000C0
7803C0
3E0780
1FFF00
0FFE00
03F800
ENDCHAR
STARTCHAR 00D8
ENCODING 216
SWIDTH 810 0
DWIDTH 18 0
BBX 19 21 0 -4
BITMAP
03F800
0E0600
180300
200080
61F0C0
47F840
C7FC60
8E1C20
8C0C20
880420
880420
840C20
861820
C1F060
E000E0
6000C0
7803C0
3E0780
1FFF00
0FFE00
03F800
ENDCHAR
STARTCHAR 00D9
ENCODING 217
SWIDTH 495 0
DWIDTH 11 0
BBX 12 31 0 -4
BITMAP
0700
1880
1040
1040
1020
1820
1820
0C60
0FE0
07E0
73E0
8910
8910
8910
8910
8910
8910
8910
8910
8910
8910
8910
8910
8610
8010
C030
C030
70E0
7FE0
3FC0
0F00
ENDCHAR
STARTCHAR 00DA
ENCODING 218
SWIDTH 495 0
DWIDTH 11 0
BBX 12 32 0 -4
BITMAP
0380
0440
0C20
0820
1820
1060
1060
10E0
18C0
1FC0
0F80
77E0
8910
8910
8910
8910
8910
8910
8910
8910
8910
8910
8910
8910
8610
8010
C030
C030
70E0
7FE0
3FC0
0F00
ENDCHAR
STARTCHAR 00DB
ENCODING 219
SWIDTH 495 0
DWIDTH 11 0
BBX 12 30 0 -4
BITMAP
0600
1980
30C0
6060
4020
4620
6660
7FE0
7FE0
79E0
8910
8910
8910
8910
8910
8910
8910
8910
8910
8910
8910
8910
8610
8010
C030
C030
70E0
7FE0
3FC0
0F00
ENDCHAR
STARTCHAR 00DC
ENCODING 220
SWIDTH 495 0
DWIDTH 11 0
BBX 12 30 0 -4
BITMAP
1DC0
2720
4210
4210
4220
6730
7FF0
3FE0
1DC0
70E0
8910
8910
8910
8910
8910
8910
8910
8910
8910
8910
8910
8910
8610
8010
C030
C030
70E0
7FE0
3FC0
0F00
ENDCHAR
STARTCHAR 00DD
ENCODING 221
SWIDTH 495 0
DWIDTH 11 0
BBX 10 23 1 0
BITMAP
0600
0F00
0F00
1F00
1E00
0E00
0000
4080
E1C0
E1C0
E1C0
E1C0
E1C0
F3C0
7FC0
3FC0
1FC0
E1C0
E1C0
F1C0
7FC0
7F80
1F00
ENDCHAR
STARTCHAR 00DE
ENCODING 222
SWIDTH 1080 0
DWIDTH 24 0
BBX 25 22 1 1
BITMAP
007E0000
00FFC000
01FFE000
01FFF000
03E3F800
03C1FC00
07C0FC00
0F807E00
3F803E00
7F803E00
3FF39E00
1F001C80
3FF1DF80
7C001F80
7E001F00
3E001F00
FE003E00
3F1C3E00
3F9C7C00
1FC0F800
00617000
001E0000
ENDCHAR
STARTCHAR 00DF
ENCODING 223
SWIDTH 495 0
DWIDTH 11 0
BBX 12 25 0 -8
BITMAP
1F00
20C0
4060
8020
8410
8E10
8E10
8C10
8830
8830
8830
8C10
8E10
8E10
8C10
8830
8870
88E0
8FE0
8FC0
8F00
9C00
FC00
F800
7800
ENDCHAR
STARTCHAR 00E0
ENCODING 224
SWIDTH 540 0
DWIDTH 12 0
BBX 13 27 0 -4
BITMAP
0700
1880
1040
1040
1020
1820
1820
0C60
0FE0
07E0
0F80
3040
2020
4010
C018
8708
8F88
8F88
8E88
8F88
C788
C088
E088
7088
3FF8
3FF8
0F70
ENDCHAR
STARTCHAR 00E1
ENCODING 225
SWIDTH 540 0
DWIDTH 12 0
BBX 13 30 0 -4
BITMAP
0380
0440
0C20
0820
1820
1060
1060
10E0
18C0
1FC0
0F80
0700
0000
0F80
3040
2020
4010
C018
8708
8F88
8F88
8E88
8F88
C788
C088
E088
7088
3FF8
3FF8
0F70
ENDCHAR
STARTCHAR 00E2
ENCODING 226
SWIDTH 540 0
DWIDTH 12 0
BBX 13 25 0 -4
BITMAP
0300
0CC0
1860
3030
2010
2310
3330
3FF0
3FF0
3CE0
2020
4010
C018
8708
8F88
8F88
8E88
8F88
C788
C088
E088
7088
3FF8
3FF8
0F70
ENDCHAR
STARTCHAR 00E3
ENCODING 227
SWIDTH 540 0
DWIDTH 12 0
BBX 13 24 0 -4
BITMAP
0F70
1098
2008
2008
2008
3318
3FF8
3FF0
3DE0
2020
4010
C018
8708
8F88
8F88
8E88
8F88
C788
C088
E088
7088
3FF8
3FF8
0F70
ENDCHAR
STARTCHAR 00E4
ENCODING 228
SWIDTH 540 0
DWIDTH 12 0
BBX 13 26 0 -4
BITMAP
0EE0
1390
2108
2108
2110
3398
3FF8
1FF0
0EE0
0F80
3040
2020
4010
C018
8708
8F88
8F88
8E88
8F88
C788
C088
E088
7088
3FF8
3FF8
0F70
ENDCHAR
STARTCHAR 00E5
ENCODING 229
SWIDTH 540 0
DWIDTH 12 0
BBX 13 26 0 -4
BITMAP
0780
0840
1020
1220
1020
1020
1860
1FE0
0FC0
0F80
3040
2020
4010
C018
8708
8F88
8F88
8E88
8F88
C788
C088
E088
7088
3FF8
3FF8
0F70
ENDCHAR
STARTCHAR 00E6
ENCODING 230
SWIDTH 900 0
DWIDTH 20 0
BBX 21 17 0 -4
BITMAP
0F8780
305860
602010
400008
800008
870218
8F0438
8F8478
8E84F0
8F83F0
878030
C0C010
E0E010
70F030
7FFFF0
3F9FE0
0F0FC0
ENDCHAR
STARTCHAR 00E7
ENCODING 231
SWIDTH 360 0
DWIDTH 8 0
BBX 10 21 0 -8
BITMAP
0F00
3080
6040
4040
80C0
87C0
8F80
8F80
8C00
8780
C080
E040
F0C0
7FC0
31C0
1180
1180
11C0
1FC0
1F80
0F00
ENDCHAR
STARTCHAR 00E8
ENCODING 232
SWIDTH 495 0
DWIDTH 11 0
BBX 13 27 0 -4
BITMAP
0700
1880
1040
1040
1020
1820
1820
0C60
0FE0
07E0
0FC0
1820
2010
4008
C008
8618
8C38
8878
88F0
87F0
C030
C010
6010
7830
3FF0
1FF0
0FE0
ENDCHAR
STARTCHAR 00E9
ENCODING 233
SWIDTH 495 0
DWIDTH 11 0
BBX 13 27 0 -4
BITMAP
0380
0440
0C20
0820
1820
1060
1060
10E0
18C0
1FC0
0FC0
1F20
2010
4008
C008
8618
8C38
8878
88F0
87F0
C030
C010
6010
7830
3FF0
1FF0
0FE0
ENDCHAR
STARTCHAR 00EA
ENCODING 234
SWIDTH 495 0
DWIDTH 11 0
BBX 13 25 0 -4
BITMAP
0300
0CC0
1860
3030
2010
2310
3330
3FF0
3FF0
1CE0
2010
4008
C008
8618
8C38
8878
88F0
87F0
C030
C010
6010
7830
3FF0
1FF0
0FE0
ENDCHAR
STARTCHAR 00EB
ENCODING 235
SWIDTH 495 0
DWIDTH 11 0
BBX 13 26 0 -4
BITMAP
0EE0
1390
2108
2108
2110
3398
3FF8
1FF0
0EE0
0FC0
1820
2010
4008
C008
8618
8C38
8878
88F0
87F0
C030
C010
6010
7830
3FF0
1FF0
0FE0
ENDCHAR
STARTCHAR 00EC
ENCODING 236
SWIDTH 180 0
DWIDTH 4 0
BBX 8 27 -2 -4
BITMAP
38
C4
82
82
81
C1
C1
63
7F
3F
1E
31
21
21
21
21
21
21
21
21
21
21
21
33
3F
3F
1E
ENDCHAR
STARTCHAR 00ED
ENCODING 237
SWIDTH 180 0
DWIDTH 4 0
BBX 8 27 0 -4
BITMAP
1C
22
61
41
C1
83
83
87
C6
FE
7C
FC
84
84
84
84
84
84
84
84
84
84
84
CC
FC
FC
78
ENDCHAR
STARTCHAR 00EE
ENCODING 238
SWIDTH 180 0
DWIDTH 4 0
BBX 10 25 -2 -4
BITMAP
0C00
3300
6180
C0C0
8040
8C40
CCC0
FFC0
FFC0
7380
2100
2100
2100
2100
2100
2100
2100
2100
2100
2100
2100
3300
3F00
3F00
1E00
ENDCHAR
STARTCHAR 00EF
ENCODING 239
SWIDTH 180 0
DWIDTH 4 0
BBX 11 26 -2 -4
BITMAP
3B80
4E40
8420
8420
8440
CE60
FFE0
7FC0
3B80
1E00
3100
2100
2100
2100
2100
2100
2100
2100
2100
2100
2100
2100
3300
3F00
3F00
1E00
ENDCHAR
STARTCHAR 00F0
ENCODING 240
SWIDTH 1080 0
DWIDTH 24 0
BBX 25 22 1 1
BITMAP
007E0000
00FFC000
01FFE000
01FFF000
03E3F800
03C1FC00
07C0FC00
0F807E00
3F803E00
7F803E00
3FF39E00
1F001C80
3FF1DF80
7C001F80
7E001F00
3E001F00
FE003E00
3F1C3E00
3F9C7C00
1FC0F800
00617000
001E0000
ENDCHAR
STARTCHAR 00F1
ENCODING 241
SWIDTH 495 0
DWIDTH 11 0
BBX 16 30 0 -9
BITMAP
1EE0
2130
4010
4010
4010
6630
7FF0
7FE0
3FC0
30C0
6020
4020
8010
8610
8F10
8F10
8910
8910
8910
8910
8910
8910
F90E
F903
7181
0181
00E3
00FF
007F
001E
ENDCHAR
STARTCHAR 00F2
ENCODING 242
SWIDTH 540 0
DWIDTH 12 0
BBX 14 27 0 -4
BITMAP
0700
1880
1040
1040
1020
1820
1820
0C60
0FE0
07E0
0FC0
1860
2010
4008
C00C
8704
8F84
8F84
8F84
8704
C00C
C00C
6018
7878
3FF0
1FE0
0FC0
ENDCHAR
STARTCHAR 00F3
ENCODING 243
SWIDTH 540 0
DWIDTH 12 0
BBX 14 27 0 -4
BITMAP
01C0
0220
0610
0410
0C10
0830
0830
0870
0C60
0FE0
0FC0
1BE0
2010
4008
C00C
8704
8F84
8F84
8F84
8704
C00C
C00C
6018
7878
3FF0
1FE0
0FC0
ENDCHAR
STARTCHAR 00F4
ENCODING 244
SWIDTH 540 0
DWIDTH 12 0
BBX 14 25 0 -4
BITMAP
0300
0CC0
1860
3030
2010
2310
3330
3FF0
3FF0
1CE0
2010
4008
C00C
8704
8F84
8F84
8F84
8704
C00C
C00C
6018
7878
3FF0
1FE0
0FC0
ENDCHAR
STARTCHAR 00F5
ENCODING 245
SWIDTH 540 0
DWIDTH 12 0
BBX 14 25 0 -4
BITMAP
0F70
1098
2008
2008
2008
3318
3FF8
3FF0
1FE0
1860
2010
4008
C00C
8704
8F84
8F84
8F84
8704
C00C
C00C
6018
7878
3FF0
1FE0
0FC0
ENDCHAR
STARTCHAR 00F6
ENCODING 246
SWIDTH 540 0
DWIDTH 12 0
BBX 14 26 0 -4
BITMAP
0EE0
1390
2108
2108
2110
3398
3FF8
1FF0
0EE0
0FC0
1860
2010
4008
C00C
8704
8F84
8F84
8F84
8704
C00C
C00C
6018
7878
3FF0
1FE0
0FC0
ENDCHAR
STARTCHAR 00F7
ENCODING 247
SWIDTH 1080 0
DWIDTH 24 0
BBX 25 22 1 1
BITMAP
007E0000
00FFC000
01FFE000
01FFF000
03E3F800
03C1FC00
07C0FC00
0F807E00
3F803E00
7F803E00
3FF39E00
1F001C80
3FF1DF80
7C001F80
7E001F00
3E001F00
FE003E00
3F1C3E00
3F9C7C00
1FC0F800
00617000
001E0000
ENDCHAR
STARTCHAR 00F8
ENCODING 248
SWIDTH 810 0
DWIDTH 18 0
BBX 19 21 0 -4
BITMAP
03F800
0E0600
180300
200080
61F0C0
47F840
C7FC60
8E1C20
8C0C20
880420
880420
840C20
861820
C1F060
E000E0
6000C0
7803C0
3E0780
1FFF00
0FFE00
03F800
ENDCHAR
STARTCHAR 00F9
ENCODING 249
SWIDTH 495 0
DWIDTH 11 0
BBX 12 26 0 -4
BITMAP
0E00
3100
2080
2080
2040
3040
3040
18C0
1FC0
7FE0
8F10
8910
8910
8910
8910
8910
8910
8910
8610
8010
C030
C070
70E0
7FE0
3FC0
0F00
ENDCHAR
STARTCHAR 00FA
ENCODING 250
SWIDTH 495 0
DWIDTH 11 0
BBX 12 27 0 -4
BITMAP
0380
0440
0C20
0820
1820
1060
1060
10E0
18C0
1FC0
7FE0
8F10
8910
8910
8910
8910
8910
8910
8910
8610
8010
C030
C070
70E0
7FE0
3FC0
0F00
ENDCHAR
STARTCHAR 00FB
ENCODING 251
SWIDTH 495 0
DWIDTH 11 0
BBX 12 25 0 -4
BITMAP
0600
1980
30C0
6060
4020
4620
6660
7FE0
7FE0
B9D0
8910
8910
8910
8910
8910
8910
8910
8610
8010
C030
C070
70E0
7FE0
3FC0
0F00
ENDCHAR
STARTCHAR 00FC
ENCODING 252
SWIDTH 495 0
DWIDTH 11 0
BBX 12 26 0 -4
BITMAP
1DC0
2720
4210
4210
4220
6730
7FF0
3FE0
1DC0
70E0
8910
8910
8910
8910
8910
8910
8910
8910
8610
8010
C030
C070
70E0
7FE0
3FC0
0F00
ENDCHAR
STARTCHAR 00FE
ENCODING 254
SWIDTH 1080 0
DWIDTH 24 0
BBX 25 22 1 1
BITMAP
007E0000
00FFC000
01FFE000
01FFF000
03E3F800
03C1FC00
07C0FC00
0F807E00
3F803E00
7F803E00
3FF39E00
1F001C80
3FF1DF80
7C001F80
7E001F00
3E001F00
FE003E00
3F1C3E00
3F9C7C00
1FC0F800
00617000
001E0000
ENDCHAR
STARTCHAR 00FF
ENCODING 255
SWIDTH 540 0
DWIDTH 12 0
BBX 12 31 0 -9
BITMAP
1DC0
2720
4210
4210
4220
6730
7FF0
3FE0
1DC0
70E0
8910
8910
8910
8910
8910
8910
8910
8910
8610
8010
C010
E010
7110
7E10
3810
1030
1070
18E0
1FE0
1FC0
0F00
ENDCHAR
STARTCHAR 0131
ENCODING 305
SWIDTH 180 0
DWIDTH 4 0
BBX 6 17 0 -4
BITMAP
78
88
84
84
84
84
84
84
84
84
84
84
84
8C
FC
F8
70
ENDCHAR
STARTCHAR 0141
ENCODING 321
SWIDTH 1080 0
DWIDTH 24 0
BBX 25 22 1 1
BITMAP
007E0000
00FFC000
01FFE000
01FFF000
03E3F800
03C1FC00
07C0FC00
0F807E00
3F803E00
7F803E00
3FF39E00
1F001C80
3FF1DF80
7C001F80
7E001F00
3E001F00
FE003E00
3F1C3E00
3F9C7C00
1FC0F800
00617000
001E0000
ENDCHAR
STARTCHAR 0142
ENCODING 322
SWIDTH 1080 0
DWIDTH 24 0
BBX 25 22 1 1
BITMAP
007E0000
00FFC000
01FFE000
01FFF000
03E3F800
03C1FC00
07C0FC00
0F807E00
3F803E00
7F803E00
3FF39E00
1F001C80
3FF1DF80
7C001F80
7E001F00
3E001F00
FE003E00
3F1C3E00
3F9C7C00
1FC0F800
00617000
001E0000
ENDCHAR
STARTCHAR 0152
ENCODING 338
SWIDTH 1035 0
DWIDTH 23 0
BBX 25 21 0 -4
BITMAP
03F01F00
0C0C6100
1003C080
20010180
41E10F80
47F83F80
8FF83F80
8E1C0100
880C0080
880C0080
880C0180
8C087F80
86183F80
C1E01F00
C0010F80
60038080
7007C080
3C0FF180
1FFEFF80
0FFC7F00
03F01F00
ENDCHAR
STARTCHAR 0153
ENCODING 339
SWIDTH 900 0
DWIDTH 20 0
BBX 21 17 0 -4
BITMAP
0F8780
305860
602010
400008
800008
870218
8F8438
8F8478
8F84F0
8703F0
800030
C00010
E02010
707830
7FFFF0
3FFFE0
0FCFC0
ENDCHAR
STARTCHAR 0160
ENCODING 352
SWIDTH 450 0
DWIDTH 10 0
BBX 12 27 0 -4
BITMAP
3FC0
6660
4020
4020
6060
70E0
7BE0
3FD0
1F90
1E10
1070
10F0
10F0
10E0
1080
1080
1080
1080
1080
7080
E080
8180
8180
8780
FF00
FE00
7C00
ENDCHAR
STARTCHAR 0161
ENCODING 353
SWIDTH 450 0
DWIDTH 10 0
BBX 12 22 0 -4
BITMAP
3FC0
6660
4020
4020
6060
73E0
7FF0
3FD0
1F90
1670
10F0
10F0
10E0
1080
7080
E080
8180
8180
8700
FF00
FE00
7800
ENDCHAR
STARTCHAR 0178
ENCODING 376
SWIDTH 540 0
DWIDTH 12 0
BBX 12 30 0 -4
BITMAP
1DC0
2720
4210
4210
4220
6730
7FF0
3FE0
1DC0
70E0
8910
8910
8910
8910
8910
8610
8010
C010
C010
F010
8F10
8F10
8610
8010
C030
C030
70E0
7FE0
3FC0
0F00
ENDCHAR
STARTCHAR 017D
ENCODING 381
SWIDTH 495 0
DWIDTH 11 0
BBX 14 27 0 -4
BITMAP
3FC0
6660
4020
4020
6060
70E0
7FF8
7FC4
5F84
4604
7E0C
7E1C
7C18
3C38
0830
1070
1060
20C0
21C0
41F8
8004
8004
8004
800C
FFFC
FFFC
7FF8
ENDCHAR
STARTCHAR 017E
ENCODING 382
SWIDTH 450 0
DWIDTH 10 0
BBX 13 22 0 -4
BITMAP
3FC0
6660
4020
4020
6060
7FF0
79E8
7FC8
5F88
6618
7C38
7878
38F0
30E0
61E0
C010
8010
8010
8030
FFF0
FFF0
7FE0
ENDCHAR
STARTCHAR 0192
ENCODING 402
SWIDTH 450 0
DWIDTH 10 0
BBX 13 26 -1 -9
BITMAP
00F0
0308
0408
0408
0878
08F8
08F0
0880
08E0
18F0
2010
2010
2010
38F0
38F0
38E0
1880
0880
7080
C080
8180
8380
8700
FF00
FE00
7800
ENDCHAR
STARTCHAR 02C6
ENCODING 710
SWIDTH 405 0
DWIDTH 9 0
BBX 10 10 0 12
BITMAP
1C00
3200
6100
C080
8040
8840
9CC0
FFC0
FF80
7780
ENDCHAR
STARTCHAR 02C7
ENCODING 711
SWIDTH 405 0
DWIDTH 9 0
BBX 10 10 0 12
BITMAP
7F80
8C80
8040
8040
C0C0
E1C0
F380
7F00
3E00
1C00
ENDCHAR
STARTCHAR 02C9
ENCODING 713
SWIDTH 585 0
DWIDTH 13 0
BBX 11 8 1 12
BITMAP
3FC0
4020
8020
8020
C020
FFE0
7FE0
3FC0
ENDCHAR
STARTCHAR 02D8
ENCODING 728
SWIDTH 450 0
DWIDTH 10 0
BBX 9 10 1 12
BITMAP
7600
9900
8880
8880
8180
8180
C300
FF00
7E00
3C00
ENDCHAR
STARTCHAR 02D9
ENCODING 729
SWIDTH 450 0
DWIDTH 10 0
BBX 7 9 2 12
BITMAP
38
46
82
82
84
C6
FE
7E
38
ENDCHAR
STARTCHAR 02DA
ENCODING 730
SWIDTH 270 0
DWIDTH 6 0
BBX 9 10 -1 12
BITMAP
1E00
2300
4180
4880
C080
C180
6380
7F80
3F00
1E00
ENDCHAR
STARTCHAR 02DB
ENCODING 731
SWIDTH 495 0
DWIDTH 11 0
BBX 7 7 4 -7
BITMAP
E0
E0
E0
E0
FE
7E
3E
ENDCHAR
STARTCHAR 02DC
ENCODING 732
SWIDTH 405 0
DWIDTH 9 0
BBX 11 9 0 12
BITMAP
3800
C780
8240
8020
8040
98E0
FFE0
FFC0
7F80
ENDCHAR
STARTCHAR 02DD
ENCODING 733
SWIDTH 945 0
DWIDTH 21 0
BBX 20 18 1 0
BITMAP
7FFFE0
DFEFF0
FFFFF0
D5AA10
DBAAD0
D6A950
DFFFF0
FEBFF0
FEBFF0
C2C430
DAB590
9AB590
CA8490
FAFFF0
FFFFF0
EEB550
FDF550
FFFFE0
ENDCHAR
STARTCHAR 0394
ENCODING 916
SWIDTH 1080 0
DWIDTH 24 0
BBX 25 22 1 1
BITMAP
007E0000
00FFC000
01FFE000
01FFF000
03E3F800
03C1FC00
07C0FC00
0F807E00
3F803E00
7F803E00
3FF39E00
1F001C80
3FF1DF80
7C001F80
7E001F00
3E001F00
FE003E00
3F1C3E00
3F9C7C00
1FC0F800
00617000
001E0000
ENDCHAR
STARTCHAR 03A9
ENCODING 937
SWIDTH 1080 0
DWIDTH 24 0
BBX 25 22 1 1
BITMAP
007E0000
00FFC000
01FFE000
01FFF000
03E3F800
03C1FC00
07C0FC00
0F807E00
3F803E00
7F803E00
3FF39E00
1F001C80
3FF1DF80
7C001F80
7E001F00
3E001F00
FE003E00
3F1C3E00
3F9C7C00
1FC0F800
00617000
001E0000
ENDCHAR
STARTCHAR 03BC
ENCODING 956
SWIDTH 720 0
DWIDTH 16 0
BBX 17 22 0 -9
BITMAP
70E000
912000
891000
891000
891000
891000
891000
891000
891000
8E1E00
800100
800080
800080
80C180
8FFF80
8FFF00
8F3E00
880000
980000
F80000
F00000
700000
ENDCHAR
STARTCHAR 03C0
ENCODING 960
SWIDTH 540 0
DWIDTH 12 0
BBX 13 17 0 -4
BITMAP
7FF0
8010
8008
8008
8008
E108
E108
E108
2108
2108
2108
2108
2108
2318
3FF8
3FF0
1EE0
ENDCHAR
STARTCHAR 2010
ENCODING 8208
SWIDTH 270 0
DWIDTH 6 0
BBX 7 9 0 1
BITMAP
38
44
82
82
84
C6
FE
7C
38
ENDCHAR
STARTCHAR 2013
ENCODING 8211
SWIDTH 405 0
DWIDTH 9 0
BBX 11 8 0 0
BITMAP
7F80
8040
8020
8020
8060
FFE0
FFC0
7F80
ENDCHAR
STARTCHAR 2014
ENCODING 8212
SWIDTH 630 0
DWIDTH 14 0
BBX 16 8 0 0
BITMAP
7FFC
8002
8001
8001
8003
FFFF
FFFE
7FFC
ENDCHAR
STARTCHAR 2018
ENCODING 8216
SWIDTH 270 0
DWIDTH 6 0
BBX 7 11 0 6
BITMAP
38
44
82
82
82
82
82
C6
FE
7C
38
ENDCHAR
STARTCHAR 2019
ENCODING 8217
SWIDTH 270 0
DWIDTH 6 0
BBX 7 11 0 6
BITMAP
38
44
82
82
82
82
82
C6
FE
7C
38
ENDCHAR
STARTCHAR 201A
ENCODING 8218
SWIDTH 270 0
DWIDTH 6 0
BBX 7 11 0 -6
BITMAP
38
44
82
82
82
82
82
C6
FE
7C
38
ENDCHAR
STARTCHAR 201C
ENCODING 8220
SWIDTH 450 0
DWIDTH 10 0
BBX 11 11 0 6
BITMAP
7BC0
CE60
8420
8420
8420
8420
8420
CE60
FFE0
FFE0
7BC0
ENDCHAR
STARTCHAR 201D
ENCODING 8221
SWIDTH 450 0
DWIDTH 10 0
BBX 11 11 0 6
BITMAP
7BC0
CE60
8420
8420
8420
8420
8420
CE60
FFE0
FFE0
7BC0
ENDCHAR
STARTCHAR 201E
ENCODING 8222
SWIDTH 540 0
DWIDTH 12 0
BBX 13 11 0 -6
BITMAP
38E0
4510
8208
8208
8208
8208
8208
C718
FFF8
7DF0
38E0
ENDCHAR
STARTCHAR 2020
ENCODING 8224
SWIDTH 1170 0
DWIDTH 26 0
BBX 25 22 1 1
BITMAP
007E0000
00FFC000
01FFE000
03FFF000
03E3F800
07C1F800
0780FC00
0F807C00
3F803E00
FF803E00
3F739E00
1F001C80
7EF19F80
FC001F80
7C001F00
3E001F00
FE003E00
7F1C7C00
3F9C7C00
1FC0F000
00637000
001C0000
ENDCHAR
STARTCHAR 2021
ENCODING 8225
SWIDTH 1080 0
DWIDTH 24 0
BBX 25 22 1 1
BITMAP
007E0000
00FFC000
01FFE000
01FFF000
03E3F800
03C1FC00
07C0FC00
0F807E00
3F803E00
7F803E00
3FF39E00
1F001C80
3FF1DF80
7C001F80
7E001F00
3E001F00
FE003E00
3F1C3E00
3F9C7C00
1FC0F800
00617000
001E0000
ENDCHAR
STARTCHAR 2022
ENCODING 8226
SWIDTH 360 0
DWIDTH 8 0
BBX 9 11 0 1
BITMAP
3C00
4300
8100
8080
8080
8080
8180
C380
FF00
7F00
3C00
ENDCHAR
STARTCHAR 2026
ENCODING 8230
SWIDTH 720 0
DWIDTH 16 0
BBX 17 9 -1 -4
BITMAP
3DEF00
463880
461880
841080
461880
C63880
7FFF80
7FEF80
39C700
ENDCHAR
STARTCHAR 2030
ENCODING 8240
SWIDTH 810 0
DWIDTH 18 0
BBX 19 25 0 -6
BITMAP
003800
004400
3C4200
428200
838400
998E00
9D0C00
9B0C00
C31800
FE1800
7E1800
3C3C00
042600
044300
089900
089D80
0898C0
10C660
10F720
11F620
11F060
11B8E0
1F9FC0
1F1FC0
0E0780
ENDCHAR
STARTCHAR 2039
ENCODING 8249
SWIDTH 360 0
DWIDTH 8 0
BBX 8 13 0 -2
BITMAP
1E
33
61
41
83
87
83
C1
E1
73
7F
3F
0E
ENDCHAR
STARTCHAR 203A
ENCODING 8250
SWIDTH 360 0
DWIDTH 8 0
BBX 8 13 0 -2
BITMAP
70
CC
84
82
C1
E1
C1
83
87
CE
FE
FC
70
ENDCHAR
STARTCHAR 2044
ENCODING 8260
SWIDTH 450 0
DWIDTH 10 0
BBX 12 25 0 -6
BITMAP
01E0
0330
0210
0210
0430
0430
0430
0860
0860
08E0
10C0
10C0
3180
2180
2180
6300
4300
4300
8600
8600
8600
CC00
FC00
FC00
7800
ENDCHAR
STARTCHAR 2122
ENCODING 8482
SWIDTH 630 0
DWIDTH 14 0
BBX 15 12 0 5
BITMAP
E000
BFB8
9E44
8406
9C8A
9C8A
9C8A
808A
C18A
FFFE
7FFE
3EFC
ENDCHAR
STARTCHAR 2126
ENCODING 8486
SWIDTH 1080 0
DWIDTH 24 0
BBX 25 22 1 1
BITMAP
007E0000
00FFC000
01FFE000
01FFF000
03E3F800
03C1FC00
07C0FC00
0F807E00
3F803E00
7F803E00
3FF39E00
1F001C80
3FF1DF80
7C001F80
7E001F00
3E001F00
FE003E00
3F1C3E00
3F9C7C00
1FC0F800
00617000
001E0000
ENDCHAR
STARTCHAR 2202
ENCODING 8706
SWIDTH 1080 0
DWIDTH 24 0
BBX 25 22 1 1
BITMAP
007E0000
00FFC000
01FFE000
01FFF000
03E3F800
03C1FC00
07C0FC00
0F807E00
3F803E00
7F803E00
3FF39E00
1F001C80
3FF1DF80
7C001F80
7E001F00
3E001F00
FE003E00
3F1C3E00
3F9C7C00
1FC0F800
00617000
001E0000
ENDCHAR
STARTCHAR 2206
ENCODING 8710
SWIDTH 1080 0
DWIDTH 24 0
BBX 25 22 1 1
BITMAP
007E0000
00FFC000
01FFE000
01FFF000
03E3F800
03C1FC00
07C0FC00
0F807E00
3F803E00
7F803E00
3FF39E00
1F001C80
3FF1DF80
7C001F80
7E001F00
3E001F00
FE003E00
3F1C3E00
3F9C7C00
1FC0F800
00617000
001E0000
ENDCHAR
STARTCHAR 220F
ENCODING 8719
SWIDTH 540 0
DWIDTH 12 0
BBX 13 21 0 -4
BITMAP
7FF0
8010
8008
8008
E108
E108
E108
6108
2108
2108
2108
2108
2108
2108
2108
2108
2108
2318
3FF8
3FF0
1EF0
ENDCHAR
STARTCHAR 2211
ENCODING 8721
SWIDTH 1080 0
DWIDTH 24 0
BBX 25 22 1 1
BITMAP
007E0000
00FFC000
01FFE000
01FFF000
03E3F800
03C1FC00
07C0FC00
0F807E00
3F803E00
7F803E00
3FF39E00
1F001C80
3FF1DF80
7C001F80
7E001F00
3E001F00
FE003E00
3F1C3E00
3F9C7C00
1FC0F800
00617000
001E0000
ENDCHAR
STARTCHAR 2219
ENCODING 8729
SWIDTH 225 0
DWIDTH 5 0
BBX 7 9 0 -4
BITMAP
38
44
82
82
84
C6
FE
7C
38
ENDCHAR
STARTCHAR 221A
ENCODING 8730
SWIDTH 1080 0
DWIDTH 24 0
BBX 25 22 1 1
BITMAP
007E0000
00FFC000
01FFE000
01FFF000
03E3F800
03C1FC00
07C0FC00
0F807E00
3F803E00
7F803E00
3FF39E00
1F001C80
3FF1DF80
7C001F80
7E001F00
3E001F00
FE003E00
3F1C3E00
3F9C7C00
1FC0F800
00617000
001E0000
ENDCHAR
STARTCHAR 221E
ENCODING 8734
SWIDTH 945 0
DWIDTH 21 0
BBX 19 18 2 0
BITMAP
401000
000000
7B5DC0
7A9920
729D20
580480
800000
078000
078000
F7F3C0
9F9E60
9F9E60
DEF360
7E63E0
000000
100720
5A8AE0
9AEAE0
ENDCHAR
STARTCHAR 222B
ENCODING 8747
SWIDTH 405 0
DWIDTH 9 0
BBX 14 26 -3 -9
BITMAP
00F8
0304
0404
0404
083C
087C
0878
0840
0840
0840
0840
0840
0840
0840
0840
0840
0840
0840
7040
8040
80C0
81C0
C380
FF80
FF00
7C00
ENDCHAR
STARTCHAR 2248
ENCODING 8776
SWIDTH 585 0
DWIDTH 13 0
BBX 14 28 0 -15
BITMAP
0F80
3060
6010
4008
8008
8384
8784
87C4
86C4
83C4
C0C4
E044
F0C4
7FC4
700C
600C
C01C
83FC
87F8
87F8
87F0
87F8
800C
C004
E00C
7FFC
3FFC
1FF8
ENDCHAR
STARTCHAR 2260
ENCODING 8800
SWIDTH 1080 0
DWIDTH 24 0
BBX 25 22 1 1
BITMAP
007E0000
00FFC000
01FFE000
01FFF000
03E3F800
03C1FC00
07C0FC00
0F807E00
3F803E00
7F803E00
3FF39E00
1F001C80
3FF1DF80
7C001F80
7E001F00
3E001F00
FE003E00
3F1C3E00
3F9C7C00
1FC0F800
00617000
001E0000
ENDCHAR
STARTCHAR 2264
ENCODING 8804
SWIDTH 405 0
DWIDTH 9 0
BBX 10 17 0 -4
BITMAP
0E00
1900
3080
6180
4300
4380
6100
7080
7980
FF80
80C0
8040
8040
80C0
FFC0
FF80
7F80
ENDCHAR
STARTCHAR 2265
ENCODING 8805
SWIDTH 405 0
DWIDTH 9 0
BBX 10 16 0 -4
BITMAP
3800
4400
4200
4100
6080
4180
4300
4780
7F00
8080
8040
8040
80C0
FFC0
FF80
7F80
ENDCHAR
STARTCHAR 22F2
ENCODING 8946
SWIDTH 585 0
DWIDTH 13 0
BBX 14 28 0 -15
BITMAP
0F80
3060
6010
4008
8008
8384
8784
87C4
86C4
83C4
C0C4
E044
F0C4
7FC4
700C
600C
C01C
83FC
87F8
87F8
87F0
87F8
800C
C004
E00C
7FFC
3FFC
1FF8
ENDCHAR
STARTCHAR 25CA
ENCODING 9674
SWIDTH 1080 0
DWIDTH 24 0
BBX 25 22 1 1
BITMAP
007E0000
00FFC000
01FFE000
01FFF000
03E3F800
03C1FC00
07C0FC00
0F807E00
3F803E00
7F803E00
3FF39E00
1F001C80
3FF1DF80
7C001F80
7E001F00
3E001F00
FE003E00
3F1C3E00
3F9C7C00
1FC0F800
00617000
001E0000
ENDCHAR
STARTCHAR F001
ENCODING 61441
SWIDTH 765 0
DWIDTH 17 0
BBX 18 21 0 -4
BITMAP
0F8700
30C880
403040
403040
861880
8F1FC0
8F10C0
8F1080
8FF080
801080
801880
801880
801880
8FF880
8FF880
8FF080
8C1080
8C1080
FC1F80
FC1F80
780F00
ENDCHAR
STARTCHAR F002
ENCODING 61442
SWIDTH 765 0
DWIDTH 17 0
BBX 17 21 0 -4
BITMAP
0F8F00
30D080
403080
403080
861080
8F1080
8F1080
8F1080
8FF080
801080
801880
801880
801880
8FF880
8FF880
8FF080
8C1080
8C1180
FC1F80
FC1F80
780F00
ENDCHAR
ENDFONT
